<svg width="36" height="36" viewBox="0 0 36 36" fill="none" xmlns="http://www.w3.org/2000/svg">
<g clip-path="url(#clip0_11_110)">
<path d="M10.5902 14.5506L17.3158 7.82779L24.0441 14.5561L27.9552 10.6422L17.3158 0L6.67633 10.6395L10.5902 14.5506Z" fill="#F3BA2F"/>
<path d="M3.91281 13.4023L0.00038147 17.3147L3.91281 21.2271L7.82524 17.3147L3.91281 13.4023Z" fill="#F3BA2F"/>
<path d="M10.5902 20.0782L17.3158 26.8037L24.0441 20.0754L27.958 23.9839L27.9552 23.9866L17.3158 34.6288L6.67632 23.9921L6.67085 23.9866L10.5902 20.0782Z" fill="#F3BA2F"/>
<path d="M30.715 13.4026L26.8026 17.3151L30.715 21.2275L34.6274 17.3151L30.715 13.4026Z" fill="#F3BA2F"/>
<path d="M21.2844 17.313L17.3158 13.3417L14.381 16.2764L14.0419 16.6128L13.3472 17.3075L13.3417 17.3157L13.3472 17.3212L17.3158 21.2871L21.2844 17.3157H21.2871L21.2844 17.313Z" fill="#F3BA2F"/>
</g>
</svg>
