<svg width="36" height="36" viewBox="0 0 36 36" fill="none" xmlns="http://www.w3.org/2000/svg">
    <g clip-path="url(#clip0_11_109)">
        <path d="M35.5506 1.04126L21.0474 11.7668L23.7426 5.43752L35.5506 1.04126Z" fill="#E17726" stroke="#E17726" stroke-width="0.276147" stroke-linecap="round" stroke-linejoin="round" />
        <path d="M2.0927 1.04126L16.4744 11.8773L13.9007 5.44856L2.0927 1.04126Z" fill="#E27625" stroke="#E27625" stroke-width="0.276147" stroke-linecap="round" stroke-linejoin="round" />
        <path d="M30.3259 25.9276L26.4709 31.8261L34.7332 34.1016L37.097 26.0602L30.3259 25.9276Z" fill="#E27625" stroke="#E27625" stroke-width="0.276147" stroke-linecap="round" stroke-linejoin="round" />
        <path d="M0.557302 26.0602L2.91007 34.1016L11.1613 31.8261L7.31738 25.9276L0.557302 26.0602Z" fill="#E27625" stroke="#E27625" stroke-width="0.276147" stroke-linecap="round" stroke-linejoin="round" />
        <path d="M10.7195 15.9642L8.42196 19.4326L16.5959 19.8082L16.3198 11.0046L10.7195 15.9642Z" fill="#E27625" stroke="#E27625" stroke-width="0.276147" stroke-linecap="round" stroke-linejoin="round" />
        <path d="M26.9349 15.9642L21.2352 10.8942L21.0474 19.7971L29.2214 19.4216L26.9349 15.9642Z" fill="#E27625" stroke="#E27625" stroke-width="0.276147" stroke-linecap="round" stroke-linejoin="round" />
        <path d="M11.1613 31.8261L16.1099 29.4402L11.8462 26.1154L11.1613 31.8261Z" fill="#E27625" stroke="#E27625" stroke-width="0.276147" stroke-linecap="round" stroke-linejoin="round" />
        <path d="M21.5334 29.4291L26.4709 31.8261L25.7971 26.1154L21.5334 29.4291Z" fill="#E27625" stroke="#E27625" stroke-width="0.276147" stroke-linecap="round" stroke-linejoin="round" />
        <path d="M26.4709 31.8261L21.5334 29.4402L21.9311 32.6435L21.8869 34.0021L26.4709 31.8261Z" fill="#D5BFB2" stroke="#D5BFB2" stroke-width="0.276147" stroke-linecap="round" stroke-linejoin="round" />
        <path d="M11.1613 31.8261L15.7564 34.0021L15.7233 32.6435L16.1099 29.4402L11.1613 31.8261Z" fill="#D5BFB2" stroke="#D5BFB2" stroke-width="0.276147" stroke-linecap="round" stroke-linejoin="round" />
        <path d="M15.8338 23.9945L11.7247 22.7905L14.6187 21.454L15.8338 23.9945Z" fill="#233447" stroke="#233447" stroke-width="0.276147" stroke-linecap="round" stroke-linejoin="round" />
        <path d="M21.8096 23.9945L23.0136 21.465L25.9297 22.8015L21.8096 23.9945Z" fill="#233447" stroke="#233447" stroke-width="0.276147" stroke-linecap="round" stroke-linejoin="round" />
        <path d="M11.1613 31.8261L11.8793 25.9276L7.31737 26.0602L11.1613 31.8261Z" fill="#CC6228" stroke="#CC6228" stroke-width="0.276147" stroke-linecap="round" stroke-linejoin="round" />
        <path d="M25.764 25.9276L26.4709 31.8261L30.3259 26.0602L25.764 25.9276Z" fill="#CC6228" stroke="#CC6228" stroke-width="0.276147" stroke-linecap="round" stroke-linejoin="round" />
        <path d="M29.2214 19.4326L21.0474 19.8082L21.8096 24.0056L23.0136 21.4761L25.9297 22.8127L29.2214 19.4326Z" fill="#CC6228" stroke="#CC6228" stroke-width="0.276147" stroke-linecap="round" stroke-linejoin="round" />
        <path d="M11.7357 22.7906L14.6297 21.454L15.8337 23.9835L16.5959 19.7861L8.42196 19.4105L11.7357 22.7906Z" fill="#CC6228" stroke="#CC6228" stroke-width="0.276147" stroke-linecap="round" stroke-linejoin="round" />
        <path d="M8.42196 19.4326L11.8462 26.1154L11.7357 22.7906L8.42196 19.4326Z" fill="#E27525" stroke="#E27525" stroke-width="0.276147" stroke-linecap="round" stroke-linejoin="round" />
        <path d="M25.9297 22.7906L25.7971 26.1154L29.2213 19.4326L25.9297 22.7906Z" fill="#E27525" stroke="#E27525" stroke-width="0.276147" stroke-linecap="round" stroke-linejoin="round" />
        <path d="M16.5959 19.7971L15.8338 23.9946L16.7948 28.9431L17.0046 22.415L16.5959 19.7971Z" fill="#E27525" stroke="#E27525" stroke-width="0.276147" stroke-linecap="round" stroke-linejoin="round" />
        <path d="M21.0474 19.7971L20.6497 22.4039L20.8486 28.9431L21.8096 23.9946L21.0474 19.7971Z" fill="#E27525" stroke="#E27525" stroke-width="0.276147" stroke-linecap="round" stroke-linejoin="round" />
        <path d="M21.8096 23.9946L20.8486 28.9431L21.5334 29.4292L25.7971 26.1043L25.9297 22.7795L21.8096 23.9946Z" fill="#F5841F" stroke="#F5841F" stroke-width="0.276147" stroke-linecap="round" stroke-linejoin="round" />
        <path d="M11.7357 22.7905L11.8462 26.1153L16.1099 29.4401L16.7947 28.9541L15.8337 24.0056L11.7357 22.7905Z" fill="#F5841F" stroke="#F5841F" stroke-width="0.276147" stroke-linecap="round" stroke-linejoin="round" />
        <path d="M21.8979 34.0021L21.9421 32.6434L21.5666 32.3231H16.0878L15.7343 32.6434L15.7675 34.0021L11.1613 31.826L12.774 33.1405L16.0326 35.3828H21.6107L24.8803 33.1405L26.4709 31.826L21.8979 34.0021Z" fill="#C0AC9D" stroke="#C0AC9D" stroke-width="0.276147" stroke-linecap="round" stroke-linejoin="round" />
        <path d="M21.5334 29.4291L20.8486 28.9431H16.7947L16.1099 29.4291L15.7233 32.6324L16.0768 32.3121H21.5555L21.9311 32.6324L21.5334 29.4291Z" fill="white" stroke="white" stroke-width="0.276147" stroke-linecap="round" stroke-linejoin="round" />
        <path d="M36.1692 12.4737L37.3843 6.55315L35.5507 1.04126L21.5334 11.4133L26.9238 15.9642L34.5455 18.1845L36.2244 16.2183L35.4954 15.6881L36.6552 14.6277L35.7605 13.9428L36.9203 13.0592L36.1692 12.4737Z" fill="#763E1A" stroke="#763E1A" stroke-width="0.276147" stroke-linecap="round" stroke-linejoin="round" />
        <path d="M0.259075 6.5421L1.49621 12.4627L0.711956 13.0481L1.89386 13.9318L0.999149 14.6166L2.15897 15.677L1.42994 16.2072L3.10891 18.1734L10.7306 15.9532L16.1209 11.4023L2.09269 1.04126L0.259075 6.5421Z" fill="#763E1A" stroke="#763E1A" stroke-width="0.276147" stroke-linecap="round" stroke-linejoin="round" />
        <path d="M34.5455 18.1845L26.9238 15.9642L29.2213 19.4326L25.7971 26.1154L30.337 26.0602H37.1081L34.5455 18.1845Z" fill="#F5841F" stroke="#F5841F" stroke-width="0.276147" stroke-linecap="round" stroke-linejoin="round" />
        <path d="M10.7195 15.9642L3.09785 18.1845L0.557302 26.0602H7.31738L11.8572 26.1154L8.43301 19.4326L10.7195 15.9642Z" fill="#F5841F" stroke="#F5841F" stroke-width="0.276147" stroke-linecap="round" stroke-linejoin="round" />
        <path d="M21.0474 19.7971L21.5334 11.4133L23.7426 5.44849H13.9007L16.1099 11.4133L16.5959 19.7971L16.7837 22.426L16.7948 28.9431H20.8375L20.8486 22.426L21.0474 19.7971Z" fill="#F5841F" stroke="#F5841F" stroke-width="0.276147" stroke-linecap="round" stroke-linejoin="round" />
    </g>

</svg>